<?xml version="1.0" standalone="no"?>
<svg xmlns="http://www.w3.org/2000/svg" viewBox="0 0 149.36 53" width="149.36" height="53"><rect fill="none" stroke="#4c85e9" stroke-width="3" width="146.36" height="50" x="1.5" y="1.5"></rect><path fill="#5865F2" fill-rule="nonzero" d="M7.15 0.29Q15.82 0.29 15.82 8.54L15.82 8.54Q15.82 16.80 7.15 16.80L7.15 16.80L0 16.80L0 0.29L7.15 0.29ZM5.30 4.25L5.30 12.84L7.06 12.84Q10.39 12.84 10.39 9.26L10.39 9.26L10.39 7.82Q10.39 4.25 7.06 4.25L7.06 4.25L5.30 4.25ZM26.54 0Q30.22 0 32.35 1.84Q34.49 3.67 34.49 7.08L34.49 7.08L29.42 7.08Q29.42 5.64 28.67 4.80Q27.91 3.96 26.52 3.96L26.52 3.96Q24.91 3.96 24.16 4.97Q23.40 5.98 23.40 7.78L23.40 7.78L23.40 9.31Q23.40 11.09 24.16 12.11Q24.91 13.13 26.47 13.13L26.47 13.13Q28.01 13.13 28.80 12.34Q29.59 11.54 29.59 10.10L29.59 10.10L34.49 10.10Q34.49 13.49 32.41 15.29Q30.34 17.09 26.54 17.09L26.54 17.09Q22.32 17.09 20.15 14.93Q17.98 12.77 17.98 8.54L17.98 8.54Q17.98 4.32 20.15 2.16Q22.32 0 26.54 0L26.54 0ZM46.61 0.29Q48.14 0.29 49.34 1.00Q50.54 1.70 51.22 2.94Q51.89 4.18 51.89 5.71L51.89 5.71L51.89 6.02Q51.89 7.56 51.22 8.81Q50.54 10.06 49.34 10.76Q48.14 11.47 46.61 11.47L46.61 11.47L42.65 11.47L42.65 16.80L37.34 16.80L37.34 0.29L46.61 0.29ZM42.65 4.20L42.65 7.61L44.83 7.61Q45.67 7.61 46.09 7.18Q46.51 6.74 46.51 6L46.51 6L46.51 5.81Q46.51 5.04 46.09 4.62Q45.67 4.20 44.83 4.20L44.83 4.20L42.65 4.20ZM61.61 0Q64.78 0 66.82 1.28Q68.86 2.57 68.90 5.09L68.90 5.09L68.90 5.38L63.94 5.38L63.94 5.28Q63.94 4.56 63.41 4.08Q62.88 3.60 61.80 3.60L61.80 3.60Q60.74 3.60 60.18 3.91Q59.62 4.22 59.62 4.68L59.62 4.68Q59.62 5.33 60.38 5.64Q61.15 5.95 62.86 6.29L62.86 6.29Q64.85 6.70 66.13 7.14Q67.42 7.58 68.38 8.59Q69.34 9.60 69.36 11.33L69.36 11.33Q69.36 14.26 67.38 15.67Q65.40 17.09 62.09 17.09L62.09 17.09Q58.22 17.09 56.08 15.79Q53.93 14.50 53.93 11.21L53.93 11.21L58.94 11.21Q58.94 12.46 59.59 12.88Q60.24 13.30 61.61 13.30L61.61 13.30Q62.62 13.30 63.28 13.08Q63.94 12.86 63.94 12.19L63.94 12.19Q63.94 11.59 63.20 11.29Q62.47 10.99 60.82 10.66L60.82 10.66Q58.80 10.22 57.48 9.76Q56.16 9.29 55.18 8.21Q54.19 7.13 54.19 5.28L54.19 5.28Q54.19 2.57 56.29 1.28Q58.39 0 61.61 0L61.61 0Z" transform="translate(12.001 17.956)"></path><line x1="93.361" y1="0" x2="93.361" y2="100%" stroke="#4c85e9" stroke-width="3"></line><g fill="#5865F2" color="#5865F2" transform="translate(106.861, 12) scale(0.0566407)"><svg width="512.0" height="512.0" x="0.0" y="0.0" viewBox="0 0 512 512"><g><polygon points="133.657,325.657 122.343,314.343 180.687,256 122.343,197.657 133.657,186.343 203.313,256  "></polygon></g><g><rect x="224" y="312" width="96" height="16"></rect></g><g><path d="M456,424H56V88h400V424z M72,408h368V104H72V408z"></path></g></svg></g></svg>